<?xml version="1.0" encoding="UTF-8"?>
<svg id="Mitel_Dark_Blue" data-name="Mitel Dark Blue" xmlns="http://www.w3.org/2000/svg" viewBox="0 0 73 73">
  <defs>
    <style>
      .cls-1 {
        fill: #fff;
      }
    </style>
  </defs>
  <path class="cls-1" d="M50.37,48.41v-9.98h1.47c.26,0,.48-.21.48-.48v-3.1c0-.26-.21-.48-.48-.48h-7.79l-.02-.11c-.47-3.6-3.45-6.38-7.08-6.6h-.12v-2.03h6.12c.26,0,.48-.21.48-.48v-4.15c0-.26-.21-.48-.48-.48h-6.6c-.26,0-.48.21-.48.48v6.66h-.12c-3.49.34-6.36,3.11-6.81,6.6v.11h-7.81c-.26,0-.48.21-.48.48v3.1c0,.26.21.48.48.48h1.81v9.98h-1.81c-.26,0-.48.21-.48.48v3.1c0,.26.21.48.48.48h30.69c.26,0,.48-.21.48-.48v-3.1c0-.26-.21-.48-.48-.48h-1.47ZM36.84,24.56v-3.07h5.64v3.2h-5.64v-.13ZM29.93,34.23c.5-3.21,3.33-5.63,6.57-5.63s6.07,2.42,6.57,5.63l.02.15h-13.19l.02-.15ZM21.76,37.47h-.13v-2.14h29.74v2.14h-29.61ZM49.42,38.43v9.98h-3.46v-9.98h3.46ZM45.01,38.43v9.98h-3.46v-9.98h3.46ZM40.6,38.43v9.98h-3.46v-9.98h3.46ZM36.19,38.43v9.98h-3.46v-9.98h3.46ZM31.78,38.43v9.98h-3.46v-9.98h3.46ZM27.37,38.43v9.86s0,.13,0,.13h-3.46v-9.86s0-.13,0-.13h3.46ZM51.37,49.37v2.14h-29.74v-2.14h29.74Z"/>
</svg>